<?xml version="1.0" encoding="UTF-8" standalone="no"?>
<!-- Created with Inkscape (http://www.inkscape.org/) -->

<svg
   xmlns:dc="http://purl.org/dc/elements/1.1/"
   xmlns:cc="http://creativecommons.org/ns#"
   xmlns:rdf="http://www.w3.org/1999/02/22-rdf-syntax-ns#"
   xmlns:svg="http://www.w3.org/2000/svg"
   xmlns="http://www.w3.org/2000/svg"
   xmlns:sodipodi="http://sodipodi.sourceforge.net/DTD/sodipodi-0.dtd"
   xmlns:inkscape="http://www.inkscape.org/namespaces/inkscape"
   width="135mm"
   height="135mm"
   viewBox="0 0 135 135"
   version="1.1"
   id="svg3945"
   inkscape:export-filename="C:\Users\Puris\bitmap.png"
   inkscape:export-xdpi="96.330002"
   inkscape:export-ydpi="96.330002"
   inkscape:version="0.92.3 (2405546, 2018-03-11)"
   sodipodi:docname="LogoHmaxTI.svg">
  <defs
     id="defs3939">
    <filter
       inkscape:label="Channel Transparency"
       style="color-interpolation-filters:sRGB"
       id="filter3991">
      <feColorMatrix
         values="1 0 0 0 0 0 1 0 0 0 0 0 1 0 0 -1 0.5 0.5 1 0 "
         in="SourceGraphic"
         result="colormatrix"
         id="feColorMatrix3987" />
      <feComposite
         in="colormatrix"
         in2="SourceGraphic"
         operator="in"
         result="composite1"
         id="feComposite3989" />
    </filter>
  </defs>
  <sodipodi:namedview
     id="base"
     pagecolor="#ffffff"
     bordercolor="#666666"
     borderopacity="1.0"
     inkscape:pageopacity="0.0"
     inkscape:pageshadow="2"
     inkscape:zoom="0.98994949"
     inkscape:cx="278.9517"
     inkscape:cy="258.03772"
     inkscape:document-units="mm"
     inkscape:current-layer="layer1"
     showgrid="false"
     fit-margin-top="0"
     fit-margin-left="0"
     fit-margin-right="0"
     fit-margin-bottom="0"
     inkscape:window-width="1366"
     inkscape:window-height="705"
     inkscape:window-x="-8"
     inkscape:window-y="-8"
     inkscape:window-maximized="1"
     inkscape:pagecheckerboard="true" />
  <metadata
     id="metadata3942">
    <rdf:RDF>
      <cc:Work
         rdf:about="">
        <dc:format>image/svg+xml</dc:format>
        <dc:type
           rdf:resource="http://purl.org/dc/dcmitype/StillImage" />
        <dc:title></dc:title>
      </cc:Work>
    </rdf:RDF>
  </metadata>
  <g
     inkscape:label="Camada 1"
     inkscape:groupmode="layer"
     id="layer1"
     transform="translate(-26.263324,26.509361)">
    <circle
       id="path4041"
       cx="93.438324"
       cy="41.315636"
       style="fill:#ffffff;stroke:#1d1e4b;stroke-width:0.99224806;stroke-miterlimit:4;stroke-dasharray:none;stroke-opacity:1;fill-opacity:1"
       r="63.503876" />
    <g
       transform="matrix(1.8772773,0,0,-1.8772773,-231.76344,237.14542)"
       id="g3924"
       inkscape:export-xdpi="96"
       inkscape:export-ydpi="96"
       style="filter:url(#filter3991)">
      <g
         id="g28"
         transform="translate(183.4824,81.4131)">
        <path
           d="m 0,0 c 0.695,-2.146 -0.48,-4.45 -2.625,-5.146 -2.146,-0.696 -4.449,0.48 -5.145,2.627 -0.231,0.713 -0.105,1.428 -0.105,2.126 0,1.322 -0.662,1.847 -0.662,1.847 C -5.874,-0.381 0,0 0,0"
           style="fill:#1d1e4b;fill-opacity:1;fill-rule:nonzero;stroke:none"
           id="path30"
           inkscape:connector-curvature="0" />
      </g>
      <g
         id="g32"
         transform="translate(156.7773,110.9316)">
        <path
           d="M 0,0 C 0.919,0.41 1.797,0.439 1.961,0.068 2.127,-0.304 1.517,-0.936 0.6,-1.345 -0.318,-1.753 -1.196,-1.783 -1.362,-1.412 -1.528,-1.041 -0.918,-0.407 0,0 M 6.948,12.41 C 3.9,9.451 0.797,7.697 -1.059,6.811 c 3.571,2.179 8.676,8.407 14.335,10.866 3.629,1.575 7.749,2.071 10.74,2.198 -1.868,-0.669 -3.881,-1.209 -5.15,-1.382 C 16.597,18.183 11.727,17.049 6.948,12.41 M -11.531,-6.188 c 2.427,-4.586 14.632,-2.428 14.632,-2.428 0,-5.394 8.143,-6.212 8.143,-6.212 -1.941,5.192 1.552,11.646 7.26,14.021 5.982,2.488 12.775,-0.647 14.717,-5.838 -3.33,5.37 -10.383,7.023 -15.753,3.694 -5.37,-3.33 -7.025,-10.382 -3.696,-15.753 l -0.163,0.061 c -5.409,4.356 -9.649,3.958 -9.649,3.958 -2.207,0 -3.994,-1.788 -3.994,-3.994 0,-2.207 1.788,-3.935 3.994,-3.995 2.641,-0.072 6.105,-0.898 9.476,-1.931 3.003,-2.755 7.007,-4.44 11.408,-4.44 0.16,0 0.318,0.008 0.477,0.013 0.014,-0.006 0.029,-0.013 0.029,-0.013 l -0.014,0.013 c 6.282,0.179 11.705,3.788 14.461,9.022 0.546,-0.332 1.344,-0.687 1.344,-0.687 1.286,-0.633 2.841,-0.101 3.472,1.186 0.633,1.285 0.002,2.671 -1.187,3.473 -0.585,0.396 -1.22,0.781 -1.22,0.781 -0.451,-1.5 -1.261,-2.791 -1.867,-3.618 0.892,2.06 1.394,4.33 1.394,6.72 0,9.327 -7.562,16.888 -16.889,16.888 -3.498,0 -6.497,-1.502 -9.443,-2.885 C 10.688,-0.365 8.589,2.98 8.589,2.98 L 8.569,2.986 C 8.717,3.281 8.888,3.309 8.888,3.309 24.196,5.898 28.473,15.22 29.57,18.32 c 0.906,2.558 0.369,3.993 -0.926,3.691 0.009,1.512 -0.903,2.016 -2.291,1.082 -1.928,-1.294 -6.59,-2.779 -8.859,-3.09 -2.27,-0.312 -7.14,-1.444 -11.92,-6.083 -4.778,-4.64 -8.342,-7.838 -8.342,-7.838 -2.56,-1.484 -11.19,-7.686 -8.763,-12.27"
           style="fill:#1d1e4b;fill-opacity:1;fill-rule:nonzero;stroke:none"
           id="path34"
           inkscape:connector-curvature="0" />
      </g>
    </g>
  </g>
</svg>
