<?xml version="1.0" standalone="no"?>
<!DOCTYPE svg PUBLIC "-//W3C//DTD SVG 20010904//EN"
 "http://www.w3.org/TR/2001/REC-SVG-20010904/DTD/svg10.dtd">
<svg version="1.0" xmlns="http://www.w3.org/2000/svg"
 width="700.000000pt" height="700.000000pt" viewBox="0 0 700.000000 700.000000"
 preserveAspectRatio="xMidYMid meet">
<metadata>
Created by potrace 1.14, written by Peter Selinger 2001-2017
</metadata>
<g transform="translate(0.000000,700.000000) scale(0.100000,-0.100000)"
fill="#000000" stroke="none">
<path d="M3448 6806 c-1 -2 -62 -6 -135 -10 -73 -4 -152 -9 -175 -12 -56 -6
-188 -25 -209 -29 -9 -2 -34 -6 -55 -9 -22 -4 -46 -8 -54 -11 -8 -2 -26 -6
-40 -9 -321 -63 -750 -235 -1027 -412 -29 -19 -56 -34 -59 -34 -2 0 -10 -4
-17 -10 -7 -5 -61 -45 -122 -88 -60 -42 -121 -86 -133 -97 -32 -27 -52 -44
-108 -90 -115 -95 -351 -343 -436 -457 -22 -29 -49 -64 -60 -77 -25 -30 -144
-208 -184 -276 -16 -27 -34 -59 -41 -70 -7 -11 -45 -87 -86 -170 -114 -229
-177 -401 -242 -655 -31 -124 -38 -156 -51 -245 -3 -16 -7 -41 -10 -53 -39
-181 -49 -634 -19 -877 14 -116 17 -131 41 -265 29 -165 118 -471 169 -585 8
-16 26 -59 41 -95 41 -101 135 -285 199 -390 55 -91 168 -259 199 -297 9 -10
46 -56 83 -103 93 -118 356 -378 488 -483 295 -235 609 -411 960 -539 189 -68
503 -144 680 -164 28 -3 61 -7 75 -10 170 -27 590 -21 820 12 65 9 255 44 295
55 22 5 51 12 65 15 159 32 475 152 685 259 403 205 794 518 1055 844 19 24
40 48 45 55 46 51 194 265 242 349 20 34 44 78 56 97 36 63 136 268 158 322
11 29 27 67 34 83 63 139 159 504 191 720 3 22 7 51 9 64 2 13 7 58 10 100 4
42 8 96 10 121 5 58 6 353 1 405 -3 22 -7 74 -10 115 -4 41 -8 86 -10 100 -4
25 -17 112 -21 140 -17 119 -77 356 -133 520 -236 696 -720 1313 -1344 1712
-62 40 -122 79 -133 85 -55 34 -341 173 -415 202 -47 18 -94 37 -105 42 -77
33 -422 127 -525 143 -19 3 -45 8 -56 10 -34 7 -85 14 -149 22 -33 3 -69 8
-80 10 -11 2 -92 7 -180 10 -88 3 -165 7 -172 9 -6 2 -13 2 -15 1z"/>
</g>
</svg>
